<svg width="601" height="101" viewBox="0 0 601 101" fill="none" xmlns="http://www.w3.org/2000/svg">
<title>Easee Logo</title>
<g clip-path="url(#clip0_2088_207)">
    <path d="M588.537 0C581.658 0 576.075 5.56146 576.075 12.414C576.075 19.2665 581.658 24.8279 588.537 24.8279C595.417 24.8279 601 19.2665 601 12.414C601 5.56146 595.417 0 588.537 0ZM588.537 22.941C582.755 22.941 577.969 18.174 577.969 12.414C577.969 6.65388 582.655 1.88692 588.537 1.88692C594.42 1.88692 599.106 6.65388 599.106 12.414C599.106 18.174 594.32 22.941 588.537 22.941Z" fill="#1A1A1A"/>
    <path d="M593.024 9.73253C593.024 8.44148 592.625 7.54767 591.827 6.85249C591.03 6.15731 589.733 5.85938 588.039 5.85938H584.35V19.0678H586.543V13.8043H588.437L591.628 19.0678H594.12L590.431 13.2084C592.126 12.5133 593.024 11.0236 593.024 9.73253ZM588.039 12.0167H586.543L586.643 11.9174V7.64699H588.039C589.036 7.64699 589.734 7.84561 590.232 8.14354C590.731 8.44148 590.93 8.93804 590.93 9.73253C590.93 10.527 590.731 11.0236 590.232 11.4208C589.734 11.8181 589.036 12.0167 588.039 12.0167Z" fill="#1A1A1A"/>
    <path d="M520.541 88.2285C513.402 88.2682 506.373 86.5998 500.212 83.3126C487.889 76.7382 478.936 64.5427 471.508 53.6184C470.351 51.9202 469.205 50.212 468.048 48.4939L467.909 48.2953C464.09 42.6147 460.142 36.7453 455.865 31.0548C448.995 21.8982 442.495 15.3238 435.426 10.3681C425.765 3.59508 414.618 0.0198623 403.212 0.0198623H403.133C391.707 -0.00993117 380.51 3.58515 370.809 10.3781C363.741 15.3337 357.24 21.9082 350.361 31.0647C346.093 36.7553 342.145 42.6246 338.327 48.3052L338.187 48.5138C337.041 50.2219 335.894 51.9301 334.737 53.6283C327.31 64.5427 318.357 76.7481 306.033 83.3126C299.872 86.5998 292.833 88.2682 285.704 88.2285H285.575C278.446 88.2682 271.407 86.5998 265.246 83.3126C252.932 76.7382 243.969 64.5427 236.542 53.6283C235.335 51.8606 234.149 50.0829 232.952 48.3052C229.134 42.6246 225.186 36.7553 220.908 31.0647C214.039 21.9082 207.538 15.3337 200.47 10.3781C190.809 3.59508 179.662 0.0198623 168.256 0.0198623H168.097C156.671 0.0198623 145.524 3.60501 135.853 10.3781C128.774 15.3337 122.284 21.9082 115.414 31.0647C111.147 36.7453 107.199 42.6147 103.37 48.3052C102.174 50.0829 100.978 51.8606 99.7811 53.6283C92.3534 64.5427 83.4002 76.7481 71.0771 83.3126C64.9156 86.5998 57.8767 88.3278 50.6882 88.2285C31.9842 88.2285 16.4108 74.6526 13.37 56.8758H89.1031C90.8479 54.5023 92.5029 52.1188 94.0882 49.785C95.2447 48.0867 96.3913 46.3885 97.5379 44.6803L97.6675 44.4916C98.5648 43.1609 99.4621 41.8202 100.379 40.4794C95.6934 17.4193 75.1948 0 50.6882 0C22.7419 0 0 22.653 0 50.4901V50.5099C0 78.347 22.7419 101 50.6284 101C59.9305 101.079 69.0731 98.8747 77.139 94.5745C92.0244 86.6296 102.114 72.9742 110.399 60.7986C111.616 59.011 112.822 57.2135 114.038 55.4159C117.767 49.8743 121.626 44.1441 125.694 38.7216C131.735 30.6774 137.309 24.9868 143.241 20.8257C150.739 15.5721 159.343 12.7913 168.126 12.7913H168.246C177.01 12.7913 185.614 15.5721 193.112 20.8257C199.044 24.9868 204.627 30.6675 210.659 38.7216C214.737 44.154 218.585 49.8843 222.314 55.4259C223.521 57.2234 224.727 59.0209 225.943 60.8086C234.228 72.9842 244.318 86.6495 259.204 94.5944C267.24 98.8847 276.372 101.129 285.644 101.02C294.907 101.119 304.049 98.8847 312.085 94.5944C326.971 86.6495 337.06 72.9941 345.346 60.8185C346.512 59.1004 347.669 57.3823 348.835 55.6543L348.975 55.4457C352.704 49.9041 356.562 44.1639 360.63 38.7415C366.672 30.6873 372.245 25.0067 378.177 20.8455C385.675 15.5919 394.279 12.8112 403.063 12.8112H403.182C411.946 12.8112 420.55 15.5919 428.048 20.8455C433.98 25.0067 439.563 30.6873 445.595 38.7415C449.663 44.1639 453.522 49.9041 457.25 55.4457L457.39 55.6443C458.557 57.3724 459.713 59.1004 460.89 60.8185C469.175 72.9941 479.255 86.6594 494.15 94.6043C502.046 98.8151 511.01 101.03 520.032 101.03H520.591C538.707 101.03 555.566 91.2973 564.589 75.6358L553.472 69.2798C546.732 80.9887 534.13 88.2682 520.531 88.2682V88.2285H520.541ZM50.6882 12.7715C69.3922 12.7715 84.9655 26.3375 88.0164 44.1143H13.36C16.4108 26.3474 31.9942 12.7715 50.6882 12.7715Z" fill="#1A1A1A"/>
    <path d="M206.043 44.0251V50.4903C206.043 71.2961 189.054 88.2188 168.166 88.2188C147.279 88.2188 130.29 71.2961 130.29 50.4903V44.0251C126.641 48.9609 123.131 54.1648 119.731 59.2198L119.602 59.4084C119.263 59.9149 118.914 60.4214 118.575 60.9279C123.42 83.7696 143.809 100.97 168.166 100.97C183.211 100.97 196.751 94.396 206.043 83.9881V96.7894H218.854V62.5467C218.107 61.4344 217.349 60.3221 216.601 59.2098C213.201 54.1549 209.682 48.941 206.043 44.0151V44.0251Z" fill="#1A1A1A"/>
    <path d="M284.129 56.7068C290.281 58.1171 308.456 62.7648 313.421 69.3293C316.492 66.3798 319.324 63.0826 321.956 59.6663C314.03 51.4234 299.104 47.0339 287.001 44.2631C264.618 39.1386 261.148 32.1073 261.078 28.3732C261.008 24.8973 262.145 22.0172 264.538 19.5841C268.745 15.3038 276.572 12.7515 285.475 12.7515C296.751 12.7515 307.3 17.8263 314.418 26.6849L324.419 18.7002C314.857 6.8027 300.66 -0.0200195 285.465 -0.0200195C273.012 -0.0200195 262.045 3.86307 255.375 10.6361C250.58 15.5024 248.117 21.7193 248.257 28.6115C248.516 41.8498 260.58 51.2943 284.119 56.687V56.7068H284.129Z" fill="#1A1A1A"/>
    <path d="M441.059 44.1042H365.196C361.567 49.03 358.068 54.1942 354.688 59.2194L354.558 59.4081C354.219 59.9146 353.87 60.4211 353.531 60.9276C358.377 83.7693 378.766 100.97 403.123 100.97C421.238 100.97 438.098 91.2375 447.121 75.5661L436.004 69.2201C429.264 80.9289 416.662 88.2085 403.123 88.2085C384.419 88.2085 368.845 74.6425 365.795 56.8657H449.972C447.081 52.5854 444.12 48.2554 441.049 44.0942H441.059V44.1042Z" fill="#1A1A1A"/>
    <path d="M520.611 0C496.104 0 475.606 17.4193 470.93 40.4695C471.837 41.8202 472.744 43.1609 473.642 44.4916L473.771 44.6803C474.918 46.3885 476.064 48.0867 477.221 49.785C478.806 52.1188 480.461 54.5023 482.206 56.8758H571.309V50.4901C571.309 22.653 548.567 0 520.621 0H520.611ZM483.273 44.1043C486.324 26.3375 501.907 12.7616 520.601 12.7616C539.295 12.7616 554.878 26.3275 557.929 44.1043H483.273Z" fill="#1A1A1A"/>
</g>
<defs>
    <clipPath id="clip0_2088_207">
        <rect width="601" height="101" fill="white"/>
    </clipPath>
</defs>
</svg>

