<?xml version="1.0" encoding="UTF-8"?><svg id="Layer_1" xmlns="http://www.w3.org/2000/svg" viewBox="0 0 500 160"><defs><style>.cls-1{fill:#594f4a;}.cls-1,.cls-2{stroke-width:0px;}.cls-2{fill:#41845a;}</style></defs><path class="cls-2" d="m36.69,80.07c3.54-.14,22.1-.53,37.55,14.38,16.6,16.02,16.69,37.21,16.65,40.59-2.83.16-26.09,1.1-42.06-18.21-12.46-15.07-12.29-32.55-12.14-36.75Z"/><ellipse class="cls-1" cx="67.11" cy="54.72" rx="23.82" ry="24.79"/><path class="cls-2" d="m152.22,80.01c-3.54-.14-22.1-.53-37.55,14.38-16.6,16.02-16.69,37.21-16.65,40.59,2.83.16,26.09,1.1,42.06-18.21,12.46-15.07,12.29-32.55,12.14-36.75Z"/><path class="cls-2" d="m152.22,25.05c-3.54-.14-22.1-.53-37.55,14.38-16.6,16.02-16.69,37.21-16.65,40.59,2.83.16,26.09,1.1,42.06-18.21,12.46-15.07,12.29-32.55,12.14-36.75Z"/><path class="cls-1" d="m273.45,136.66l-60.32-57.88-7.18-6.26v62.46h-23.06V23.34h.92l60.17,57.88,7.03,6.26V25.02h23.21v111.64h-.76Z"/><path class="cls-1" d="m296.56,134.98V25.02h23.52v90.26h42.3v19.7h-65.82Z"/><path class="cls-1" d="m418.75,25.02c25.5,0,42.46,12.68,42.46,36.19,0,16.04-9.01,26.57-20.92,31.31l23.06,42.46h-24.89l-19.4-38.48h-15.88v38.48h-23.06V25.02h38.64Zm-15.58,19.7v32.83h16.8c10.39,0,17.56-5.19,17.56-16.34s-7.48-16.49-18.17-16.49h-16.19Z"/></svg>